<svg width="594" height="173" viewBox="0 0 594 173" fill="none" xmlns="http://www.w3.org/2000/svg">
<rect width="593.237" height="172.549" rx="10.0549" fill="#523FFD"/>
<rect x="0.45" y="0.45" width="592.337" height="171.649" rx="9.60486" stroke="#FF9494" stroke-opacity="0.31" stroke-width="0.9"/>
<path d="M44.2473 62.2358H41.6204V52.7241H41.5422L37.7141 62.0991H35.8586L32.0305 52.7241H31.9524V62.2358H29.3254V48.144H32.7434L36.7473 58.1343H36.8254L40.8293 48.144H44.2473V62.2358ZM51.0442 53.6519C49.7942 53.6519 48.8958 54.5991 48.7981 55.9077H53.2415C53.1829 54.5698 52.3137 53.6519 51.0442 53.6519ZM53.2805 59.0327H55.8977C55.5852 61.0835 53.7102 62.4604 51.1223 62.4604C47.8997 62.4604 45.9661 60.3999 45.9661 57.0503C45.9661 53.7104 47.9192 51.5425 51.0149 51.5425C54.0618 51.5425 55.9856 53.603 55.9856 56.7866V57.6558H48.7688V57.8315C48.7688 59.3257 49.7161 60.3511 51.1711 60.3511C52.2161 60.3511 53.0168 59.8335 53.2805 59.0327ZM52.1282 50.2925H49.8528L52.011 47.2651H54.6282L52.1282 50.2925ZM58.2219 49.355H61.0735V51.7671H63.0071V53.9155H61.0735V58.9253C61.0735 59.7261 61.4641 60.1069 62.304 60.1069C62.5579 60.1069 62.8215 60.0874 62.9973 60.0581V62.1577C62.7043 62.2261 62.2161 62.2749 61.6399 62.2749C59.179 62.2749 58.2219 61.4546 58.2219 59.4136V53.9155H56.7473V51.7671H58.2219V49.355ZM69.218 62.4604C66.054 62.4604 64.0325 60.4292 64.0325 56.9917C64.0325 53.603 66.0833 51.5425 69.218 51.5425C72.3528 51.5425 74.4036 53.5933 74.4036 56.9917C74.4036 60.439 72.3821 62.4604 69.218 62.4604ZM69.218 60.2827C70.6145 60.2827 71.5032 59.1011 71.5032 57.0015C71.5032 54.9214 70.6047 53.7202 69.218 53.7202C67.8313 53.7202 66.9231 54.9214 66.9231 57.0015C66.9231 59.1011 67.8118 60.2827 69.218 60.2827ZM79.7649 62.4019C77.1477 62.4019 75.4973 60.3315 75.4973 56.9819C75.4973 53.6616 77.1575 51.6011 79.7844 51.6011C81.2981 51.6011 82.47 52.4019 82.9778 53.564H83.0364V48.144H85.8879V62.2358H83.0754V60.439H83.0266C82.5188 61.5913 81.3079 62.4019 79.7649 62.4019ZM80.7317 53.8862C79.2961 53.8862 78.4172 55.0874 78.4172 57.0015C78.4172 58.9253 79.2961 60.1069 80.7317 60.1069C82.1477 60.1069 83.0559 58.9155 83.0559 57.0015C83.0559 55.0972 82.1477 53.8862 80.7317 53.8862ZM92.5969 62.4604C89.4329 62.4604 87.4114 60.4292 87.4114 56.9917C87.4114 53.603 89.4622 51.5425 92.5969 51.5425C95.7317 51.5425 97.7825 53.5933 97.7825 56.9917C97.7825 60.439 95.761 62.4604 92.5969 62.4604ZM92.5969 60.2827C93.9934 60.2827 94.8821 59.1011 94.8821 57.0015C94.8821 54.9214 93.9836 53.7202 92.5969 53.7202C91.2102 53.7202 90.302 54.9214 90.302 57.0015C90.302 59.1011 91.1907 60.2827 92.5969 60.2827ZM110.859 62.2358H107.304L102.568 48.144H105.868L109.091 59.1987H109.159L112.382 48.144H115.595L110.859 62.2358ZM119.472 60.3413C120.712 60.3413 121.738 59.5308 121.738 58.3979V57.6362L119.531 57.7729C118.466 57.8511 117.861 58.3296 117.861 59.0718C117.861 59.853 118.505 60.3413 119.472 60.3413ZM118.534 62.4019C116.542 62.4019 115.029 61.1128 115.029 59.228C115.029 57.3237 116.493 56.2202 119.101 56.064L121.738 55.9077V55.2144C121.738 54.2378 121.054 53.6714 119.98 53.6714C118.915 53.6714 118.241 54.1987 118.105 54.9702H115.497C115.605 52.939 117.333 51.5425 120.107 51.5425C122.792 51.5425 124.54 52.9292 124.54 55.0386V62.2358H121.786V60.6343H121.728C121.142 61.7476 119.843 62.4019 118.534 62.4019ZM126.454 62.2358V48.144H129.306V62.2358H126.454ZM131.279 62.2358V51.7671H134.13V62.2358H131.279ZM132.704 50.6147C131.845 50.6147 131.181 49.9604 131.181 49.1401C131.181 48.3101 131.845 47.6655 132.704 47.6655C133.564 47.6655 134.228 48.3101 134.228 49.1401C134.228 49.9604 133.564 50.6147 132.704 50.6147ZM139.921 62.4019C137.304 62.4019 135.654 60.3315 135.654 56.9819C135.654 53.6616 137.314 51.6011 139.941 51.6011C141.454 51.6011 142.626 52.4019 143.134 53.564H143.193V48.144H146.044V62.2358H143.232V60.439H143.183C142.675 61.5913 141.464 62.4019 139.921 62.4019ZM140.888 53.8862C139.452 53.8862 138.573 55.0874 138.573 57.0015C138.573 58.9253 139.452 60.1069 140.888 60.1069C142.304 60.1069 143.212 58.9155 143.212 57.0015C143.212 55.0972 142.304 53.8862 140.888 53.8862ZM151.991 60.3413C153.232 60.3413 154.257 59.5308 154.257 58.3979V57.6362L152.05 57.7729C150.986 57.8511 150.38 58.3296 150.38 59.0718C150.38 59.853 151.025 60.3413 151.991 60.3413ZM151.054 62.4019C149.062 62.4019 147.548 61.1128 147.548 59.228C147.548 57.3237 149.013 56.2202 151.62 56.064L154.257 55.9077V55.2144C154.257 54.2378 153.573 53.6714 152.499 53.6714C151.435 53.6714 150.761 54.1987 150.624 54.9702H148.017C148.124 52.939 149.853 51.5425 152.626 51.5425C155.312 51.5425 157.06 52.9292 157.06 55.0386V62.2358H154.306V60.6343H154.247C153.661 61.7476 152.363 62.4019 151.054 62.4019ZM162.792 62.4019C160.175 62.4019 158.525 60.3315 158.525 56.9819C158.525 53.6616 160.185 51.6011 162.812 51.6011C164.325 51.6011 165.497 52.4019 166.005 53.564H166.064V48.144H168.915V62.2358H166.103V60.439H166.054C165.546 61.5913 164.335 62.4019 162.792 62.4019ZM163.759 53.8862C162.323 53.8862 161.445 55.0874 161.445 57.0015C161.445 58.9253 162.323 60.1069 163.759 60.1069C165.175 60.1069 166.083 58.9155 166.083 57.0015C166.083 55.0972 165.175 53.8862 163.759 53.8862ZM175.624 62.4604C172.46 62.4604 170.439 60.4292 170.439 56.9917C170.439 53.603 172.49 51.5425 175.624 51.5425C178.759 51.5425 180.81 53.5933 180.81 56.9917C180.81 60.439 178.788 62.4604 175.624 62.4604ZM175.624 60.2827C177.021 60.2827 177.909 59.1011 177.909 57.0015C177.909 54.9214 177.011 53.7202 175.624 53.7202C174.238 53.7202 173.329 54.9214 173.329 57.0015C173.329 59.1011 174.218 60.2827 175.624 60.2827ZM192.363 51.6011C195.019 51.6011 196.65 53.6226 196.65 57.0015C196.65 60.3706 195.029 62.4019 192.411 62.4019C190.888 62.4019 189.716 61.6597 189.159 60.478H189.101V65.6538H186.249V51.7671H189.062V53.5933H189.12C189.687 52.3628 190.849 51.6011 192.363 51.6011ZM191.406 60.1069C192.831 60.1069 193.73 58.9058 193.73 57.0015C193.73 55.1069 192.831 53.8862 191.406 53.8862C190.009 53.8862 189.091 55.1265 189.091 57.0015C189.091 58.896 190.009 60.1069 191.406 60.1069ZM202.167 60.3413C203.407 60.3413 204.433 59.5308 204.433 58.3979V57.6362L202.226 57.7729C201.161 57.8511 200.556 58.3296 200.556 59.0718C200.556 59.853 201.2 60.3413 202.167 60.3413ZM201.23 62.4019C199.238 62.4019 197.724 61.1128 197.724 59.228C197.724 57.3237 199.189 56.2202 201.796 56.064L204.433 55.9077V55.2144C204.433 54.2378 203.749 53.6714 202.675 53.6714C201.611 53.6714 200.937 54.1987 200.8 54.9702H198.193C198.3 52.939 200.029 51.5425 202.802 51.5425C205.488 51.5425 207.236 52.9292 207.236 55.0386V62.2358H204.482V60.6343H204.423C203.837 61.7476 202.538 62.4019 201.23 62.4019ZM209.081 62.2358V51.7671H211.835V53.6519H211.894C212.265 52.3237 213.154 51.6011 214.384 51.6011C214.716 51.6011 214.999 51.6499 215.195 51.7085V54.2183C214.96 54.1206 214.57 54.0522 214.159 54.0522C212.753 54.0522 211.933 54.9116 211.933 56.3862V62.2358H209.081ZM220.156 60.3413C221.396 60.3413 222.421 59.5308 222.421 58.3979V57.6362L220.214 57.7729C219.15 57.8511 218.544 58.3296 218.544 59.0718C218.544 59.853 219.189 60.3413 220.156 60.3413ZM219.218 62.4019C217.226 62.4019 215.712 61.1128 215.712 59.228C215.712 57.3237 217.177 56.2202 219.784 56.064L222.421 55.9077V55.2144C222.421 54.2378 221.738 53.6714 220.663 53.6714C219.599 53.6714 218.925 54.1987 218.788 54.9702H216.181C216.288 52.939 218.017 51.5425 220.79 51.5425C223.476 51.5425 225.224 52.9292 225.224 55.0386V62.2358H222.47V60.6343H222.411C221.825 61.7476 220.527 62.4019 219.218 62.4019ZM240.507 62.2358L239.433 58.8179H234.482L233.407 62.2358H230.38L235.273 48.144H238.74L243.642 62.2358H240.507ZM236.923 50.8394L235.116 56.6108H238.798L236.991 50.8394H236.923ZM253.964 55.6636H251.318C251.152 54.5601 250.419 53.7788 249.247 53.7788C247.841 53.7788 246.962 54.9702 246.962 56.9917C246.962 59.0522 247.841 60.2241 249.257 60.2241C250.4 60.2241 251.142 59.5405 251.318 58.3979H253.974C253.827 60.8687 251.982 62.4604 249.228 62.4604C246.073 62.4604 244.072 60.4097 244.072 56.9917C244.072 53.6323 246.073 51.5425 249.208 51.5425C252.04 51.5425 253.837 53.2905 253.964 55.6636ZM260.048 53.6519C258.798 53.6519 257.9 54.5991 257.802 55.9077H262.245C262.187 54.5698 261.318 53.6519 260.048 53.6519ZM262.284 59.0327H264.902C264.589 61.0835 262.714 62.4604 260.126 62.4604C256.904 62.4604 254.97 60.3999 254.97 57.0503C254.97 53.7104 256.923 51.5425 260.019 51.5425C263.066 51.5425 264.99 53.603 264.99 56.7866V57.6558H257.773V57.8315C257.773 59.3257 258.72 60.3511 260.175 60.3511C261.22 60.3511 262.021 59.8335 262.284 59.0327ZM266.532 62.2358V48.144H269.384V62.2358H266.532ZM276.005 53.6519C274.755 53.6519 273.857 54.5991 273.759 55.9077H278.202C278.144 54.5698 277.275 53.6519 276.005 53.6519ZM278.241 59.0327H280.859C280.546 61.0835 278.671 62.4604 276.083 62.4604C272.861 62.4604 270.927 60.3999 270.927 57.0503C270.927 53.7104 272.88 51.5425 275.976 51.5425C279.023 51.5425 280.947 53.603 280.947 56.7866V57.6558H273.73V57.8315C273.73 59.3257 274.677 60.3511 276.132 60.3511C277.177 60.3511 277.978 59.8335 278.241 59.0327ZM282.421 62.2358V51.7671H285.175V53.6519H285.234C285.605 52.3237 286.493 51.6011 287.724 51.6011C288.056 51.6011 288.339 51.6499 288.534 51.7085V54.2183C288.3 54.1206 287.909 54.0522 287.499 54.0522C286.093 54.0522 285.273 54.9116 285.273 56.3862V62.2358H282.421ZM293.495 60.3413C294.736 60.3413 295.761 59.5308 295.761 58.3979V57.6362L293.554 57.7729C292.49 57.8511 291.884 58.3296 291.884 59.0718C291.884 59.853 292.529 60.3413 293.495 60.3413ZM292.558 62.4019C290.566 62.4019 289.052 61.1128 289.052 59.228C289.052 57.3237 290.517 56.2202 293.124 56.064L295.761 55.9077V55.2144C295.761 54.2378 295.077 53.6714 294.003 53.6714C292.939 53.6714 292.265 54.1987 292.128 54.9702H289.521C289.628 52.939 291.357 51.5425 294.13 51.5425C296.816 51.5425 298.564 52.9292 298.564 55.0386V62.2358H295.81V60.6343H295.751C295.165 61.7476 293.866 62.4019 292.558 62.4019ZM307.275 58.3979H309.931C309.794 60.644 308.251 62.1675 305.898 62.4214L305.488 63.3101C306.591 63.3198 307.323 63.9155 307.323 64.9116C307.323 66.0933 306.386 66.7183 304.902 66.728C304.345 66.7378 303.769 66.6792 303.515 66.5913V65.3999C303.749 65.4683 304.228 65.5171 304.609 65.5171C305.341 65.5171 305.693 65.3413 305.693 64.9897C305.693 64.5894 305.351 64.4526 304.491 64.4526H303.876V63.4956L304.365 62.4116C301.689 62.0796 300.029 60.1069 300.029 56.9917C300.029 53.6323 302.031 51.5425 305.165 51.5425C307.997 51.5425 309.794 53.2905 309.921 55.6636H307.275C307.109 54.5601 306.376 53.7788 305.204 53.7788C303.798 53.7788 302.919 54.9702 302.919 56.9917C302.919 59.0522 303.798 60.2241 305.214 60.2241C306.357 60.2241 307.099 59.5405 307.275 58.3979ZM315.351 60.3413C316.591 60.3413 317.616 59.5308 317.616 58.3979V57.6362L315.409 57.7729C314.345 57.8511 313.74 58.3296 313.74 59.0718C313.74 59.853 314.384 60.3413 315.351 60.3413ZM314.413 62.4019C312.421 62.4019 310.907 61.1128 310.907 59.228C310.907 57.3237 312.372 56.2202 314.98 56.064L317.616 55.9077V55.2144C317.616 54.2378 316.933 53.6714 315.859 53.6714C314.794 53.6714 314.12 54.1987 313.984 54.9702H311.376C311.484 52.939 313.212 51.5425 315.986 51.5425C318.671 51.5425 320.419 52.9292 320.419 55.0386V62.2358H317.665V60.6343H317.607C317.021 61.7476 315.722 62.4019 314.413 62.4019ZM317.314 50.3413C315.956 50.3413 315.448 49.0132 314.726 49.0132C314.277 49.0132 314.042 49.4917 314.042 50.2046H312.49C312.49 48.4858 313.427 47.5288 314.638 47.5288C316.044 47.5288 316.523 48.8472 317.226 48.8472C317.656 48.8472 317.88 48.4077 317.9 47.6362H319.452C319.452 49.3257 318.495 50.3413 317.314 50.3413ZM327.07 62.4604C323.906 62.4604 321.884 60.4292 321.884 56.9917C321.884 53.603 323.935 51.5425 327.07 51.5425C330.204 51.5425 332.255 53.5933 332.255 56.9917C332.255 60.439 330.234 62.4604 327.07 62.4604ZM327.07 60.2827C328.466 60.2827 329.355 59.1011 329.355 57.0015C329.355 54.9214 328.456 53.7202 327.07 53.7202C325.683 53.7202 324.775 54.9214 324.775 57.0015C324.775 59.1011 325.663 60.2827 327.07 60.2827ZM341.581 62.4019C338.964 62.4019 337.314 60.3315 337.314 56.9819C337.314 53.6616 338.974 51.6011 341.601 51.6011C343.115 51.6011 344.286 52.4019 344.794 53.564H344.853V48.144H347.704V62.2358H344.892V60.439H344.843C344.335 61.5913 343.124 62.4019 341.581 62.4019ZM342.548 53.8862C341.113 53.8862 340.234 55.0874 340.234 57.0015C340.234 58.9253 341.113 60.1069 342.548 60.1069C343.964 60.1069 344.872 58.9155 344.872 57.0015C344.872 55.0972 343.964 53.8862 342.548 53.8862ZM354.306 53.6519C353.056 53.6519 352.157 54.5991 352.06 55.9077H356.503C356.445 54.5698 355.575 53.6519 354.306 53.6519ZM356.542 59.0327H359.159C358.847 61.0835 356.972 62.4604 354.384 62.4604C351.161 62.4604 349.228 60.3999 349.228 57.0503C349.228 53.7104 351.181 51.5425 354.277 51.5425C357.323 51.5425 359.247 53.603 359.247 56.7866V57.6558H352.031V57.8315C352.031 59.3257 352.978 60.3511 354.433 60.3511C355.478 60.3511 356.279 59.8335 356.542 59.0327ZM372.323 62.2358H368.769L364.032 48.144H367.333L370.556 59.1987H370.624L373.847 48.144H377.06L372.323 62.2358ZM381.591 53.6519C380.341 53.6519 379.443 54.5991 379.345 55.9077H383.788C383.73 54.5698 382.861 53.6519 381.591 53.6519ZM383.827 59.0327H386.445C386.132 61.0835 384.257 62.4604 381.669 62.4604C378.447 62.4604 376.513 60.3999 376.513 57.0503C376.513 53.7104 378.466 51.5425 381.562 51.5425C384.609 51.5425 386.532 53.603 386.532 56.7866V57.6558H379.316V57.8315C379.316 59.3257 380.263 60.3511 381.718 60.3511C382.763 60.3511 383.564 59.8335 383.827 59.0327ZM388.007 62.2358V51.7671H390.761V53.6323H390.82C391.376 52.3335 392.48 51.5718 394.091 51.5718C396.415 51.5718 397.724 53.0366 397.724 55.4878V62.2358H394.872V56.0835C394.872 54.7163 394.228 53.9351 392.948 53.9351C391.669 53.9351 390.859 54.8726 390.859 56.23V62.2358H388.007ZM403.417 62.4019C400.8 62.4019 399.15 60.3315 399.15 56.9819C399.15 53.6616 400.81 51.6011 403.437 51.6011C404.95 51.6011 406.122 52.4019 406.63 53.564H406.689V48.144H409.54V62.2358H406.728V60.439H406.679C406.171 61.5913 404.96 62.4019 403.417 62.4019ZM404.384 53.8862C402.948 53.8862 402.07 55.0874 402.07 57.0015C402.07 58.9253 402.948 60.1069 404.384 60.1069C405.8 60.1069 406.708 58.9155 406.708 57.0015C406.708 55.0972 405.8 53.8862 404.384 53.8862ZM415.488 60.3413C416.728 60.3413 417.753 59.5308 417.753 58.3979V57.6362L415.546 57.7729C414.482 57.8511 413.876 58.3296 413.876 59.0718C413.876 59.853 414.521 60.3413 415.488 60.3413ZM414.55 62.4019C412.558 62.4019 411.044 61.1128 411.044 59.228C411.044 57.3237 412.509 56.2202 415.116 56.064L417.753 55.9077V55.2144C417.753 54.2378 417.07 53.6714 415.995 53.6714C414.931 53.6714 414.257 54.1987 414.12 54.9702H411.513C411.62 52.939 413.349 51.5425 416.122 51.5425C418.808 51.5425 420.556 52.9292 420.556 55.0386V62.2358H417.802V60.6343H417.743C417.157 61.7476 415.859 62.4019 414.55 62.4019ZM422.226 54.8433C422.226 52.8511 423.954 51.5425 426.64 51.5425C429.267 51.5425 430.976 52.8706 431.015 54.9019H428.388C428.329 54.062 427.656 53.5444 426.601 53.5444C425.615 53.5444 424.97 53.9937 424.97 54.6675C424.97 55.1851 425.419 55.5366 426.337 55.7515L428.339 56.1812C430.439 56.6499 431.288 57.48 431.288 59.0425C431.288 61.103 429.394 62.4604 426.63 62.4604C423.837 62.4604 422.118 61.1128 421.962 59.0718H424.745C424.882 59.9507 425.575 60.4585 426.708 60.4585C427.792 60.4585 428.447 60.0288 428.447 59.3452C428.447 58.8179 428.095 58.5249 427.157 58.3003L425.224 57.8706C423.241 57.4214 422.226 56.3862 422.226 54.8433ZM433.486 48.144H436.415L436.181 57.5972H433.72L433.486 48.144ZM434.95 62.48C434.062 62.48 433.359 61.8062 433.359 60.9468C433.359 60.0874 434.062 59.4136 434.95 59.4136C435.839 59.4136 436.542 60.0874 436.542 60.9468C436.542 61.8062 435.839 62.48 434.95 62.48Z" fill="white"/>
<path d="M30.6516 99.3127H29.2533V87.9775H30.628L36.8337 96.8776H36.9044V87.9775H38.3027V99.3127H36.928L30.7223 90.444H30.6516V99.3127ZM43.6757 99.4541C41.4134 99.4541 39.8895 97.8281 39.8895 95.228C39.8895 92.62 41.4134 91.0018 43.6757 91.0018C45.9302 91.0018 47.4542 92.62 47.4542 95.228C47.4542 97.8281 45.9302 99.4541 43.6757 99.4541ZM43.6757 98.2523C45.1211 98.2523 46.0638 97.1525 46.0638 95.228C46.0638 93.3034 45.1211 92.2036 43.6757 92.2036C42.2304 92.2036 41.2799 93.3034 41.2799 95.228C41.2799 97.1525 42.2304 98.2523 43.6757 98.2523ZM48.6953 93.3977C48.6953 91.9994 49.9443 91.0018 51.7432 91.0018C53.4321 91.0018 54.6732 92.0073 54.7361 93.3898H53.4321C53.3378 92.6043 52.7016 92.1172 51.6961 92.1172C50.6984 92.1172 50.0386 92.6121 50.0386 93.327C50.0386 93.8925 50.4706 94.2696 51.3976 94.5053L52.6623 94.8116C54.3119 95.228 54.9089 95.825 54.9089 97.0268C54.9089 98.4487 53.5656 99.4541 51.6568 99.4541C49.8658 99.4541 48.6168 98.4801 48.4754 97.0347H49.8422C49.9915 97.8831 50.6356 98.3387 51.7432 98.3387C52.8508 98.3387 53.5342 97.8674 53.5342 97.129C53.5342 96.5477 53.1964 96.2334 52.2774 95.9899L50.8398 95.6207C49.4023 95.2515 48.6953 94.5131 48.6953 93.3977ZM56.1893 93.3977C56.1893 91.9994 57.4383 91.0018 59.2372 91.0018C60.9261 91.0018 62.1673 92.0073 62.2301 93.3898H60.9261C60.8318 92.6043 60.1956 92.1172 59.1901 92.1172C58.1924 92.1172 57.5326 92.6121 57.5326 93.327C57.5326 93.8925 57.9646 94.2696 58.8916 94.5053L60.1563 94.8116C61.8059 95.228 62.4029 95.825 62.4029 97.0268C62.4029 98.4487 61.0597 99.4541 59.1508 99.4541C57.3598 99.4541 56.1108 98.4801 55.9694 97.0347H57.3362C57.4855 97.8831 58.1296 98.3387 59.2372 98.3387C60.3448 98.3387 61.0282 97.8674 61.0282 97.129C61.0282 96.5477 60.6905 96.2334 59.7714 95.9899L58.3338 95.6207C56.8963 95.2515 56.1893 94.5131 56.1893 93.3977ZM66.5191 98.2915C67.8074 98.2915 68.7972 97.3882 68.7972 96.2099V95.5422L66.6134 95.6757C65.5136 95.7464 64.8852 96.2334 64.8852 97.0033C64.8852 97.7809 65.5372 98.2915 66.5191 98.2915ZM66.2128 99.4541C64.5867 99.4541 63.4948 98.4722 63.4948 97.0033C63.4948 95.605 64.571 94.7252 66.4563 94.6152L68.7972 94.4817V93.7983C68.7972 92.8007 68.1373 92.2036 67.0062 92.2036C65.9535 92.2036 65.2937 92.6985 65.1209 93.4998H63.8012C63.8954 92.0858 65.1052 91.0018 67.0376 91.0018C68.9543 91.0018 70.164 92.0387 70.164 93.6647V99.3127H68.8679V97.9066H68.8365C68.3494 98.8414 67.3125 99.4541 66.2128 99.4541ZM71.7586 93.3977C71.7586 91.9994 73.0077 91.0018 74.8065 91.0018C76.4954 91.0018 77.7366 92.0073 77.7994 93.3898H76.4954C76.4012 92.6043 75.7649 92.1172 74.7594 92.1172C73.7618 92.1172 73.1019 92.6121 73.1019 93.327C73.1019 93.8925 73.534 94.2696 74.4609 94.5053L75.7256 94.8116C77.3752 95.228 77.9722 95.825 77.9722 97.0268C77.9722 98.4487 76.629 99.4541 74.7201 99.4541C72.9291 99.4541 71.6801 98.4801 71.5387 97.0347H72.9055C73.0548 97.8831 73.6989 98.3387 74.8065 98.3387C75.9141 98.3387 76.5975 97.8674 76.5975 97.129C76.5975 96.5477 76.2598 96.2334 75.3407 95.9899L73.9032 95.6207C72.4656 95.2515 71.7586 94.5131 71.7586 93.3977ZM85.969 92.1879C84.6886 92.1879 83.7931 93.1699 83.7066 94.5288H88.1449C88.1135 93.162 87.2573 92.1879 85.969 92.1879ZM88.1135 96.9718H89.4568C89.2211 98.4015 87.8386 99.4541 86.0554 99.4541C83.7145 99.4541 82.2927 97.8281 82.2927 95.2594C82.2927 92.7221 83.7381 91.0018 85.9926 91.0018C88.1999 91.0018 89.5589 92.6043 89.5589 95.0787V95.5972H83.6988V95.6757C83.6988 97.2389 84.6179 98.268 86.0868 98.268C87.1237 98.268 87.8857 97.7417 88.1135 96.9718ZM90.8 93.3977C90.8 91.9994 92.049 91.0018 93.8479 91.0018C95.5368 91.0018 96.778 92.0073 96.8408 93.3898H95.5368C95.4426 92.6043 94.8063 92.1172 93.8008 92.1172C92.8032 92.1172 92.1433 92.6121 92.1433 93.327C92.1433 93.8925 92.5753 94.2696 93.5023 94.5053L94.767 94.8116C96.4166 95.228 97.0136 95.825 97.0136 97.0268C97.0136 98.4487 95.6704 99.4541 93.7615 99.4541C91.9705 99.4541 90.7215 98.4801 90.5801 97.0347H91.9469C92.0962 97.8831 92.7403 98.3387 93.8479 98.3387C94.9555 98.3387 95.6389 97.8674 95.6389 97.129C95.6389 96.5477 95.3012 96.2334 94.3821 95.9899L92.9445 95.6207C91.507 95.2515 90.8 94.5131 90.8 93.3977ZM98.8753 89.1715H100.242V91.1432H101.829V92.2665H100.242V97.1211C100.242 97.8674 100.556 98.2051 101.256 98.2051C101.413 98.2051 101.727 98.1816 101.821 98.1659V99.3127C101.656 99.352 101.279 99.3756 100.957 99.3756C99.4566 99.3756 98.8753 98.7629 98.8753 97.1918V92.2665H97.6578V91.1432H98.8753V89.1715ZM103.29 99.3127V91.1432H104.578V92.4786H104.61C104.877 91.5752 105.631 91.0018 106.589 91.0018C106.825 91.0018 107.029 91.0411 107.139 91.0568V92.3843C107.029 92.345 106.739 92.3058 106.409 92.3058C105.348 92.3058 104.657 93.0677 104.657 94.2225V99.3127H103.29ZM110.792 98.2915C112.08 98.2915 113.07 97.3882 113.07 96.2099V95.5422L110.886 95.6757C109.786 95.7464 109.158 96.2334 109.158 97.0033C109.158 97.7809 109.81 98.2915 110.792 98.2915ZM110.486 99.4541C108.86 99.4541 107.768 98.4722 107.768 97.0033C107.768 95.605 108.844 94.7252 110.729 94.6152L113.07 94.4817V93.7983C113.07 92.8007 112.41 92.2036 111.279 92.2036C110.226 92.2036 109.566 92.6985 109.394 93.4998H108.074C108.168 92.0858 109.378 91.0018 111.31 91.0018C113.227 91.0018 114.437 92.0387 114.437 93.6647V99.3127H113.141V97.9066H113.109C112.622 98.8414 111.585 99.4541 110.486 99.4541ZM116.613 89.1715H117.98V91.1432H119.566V92.2665H117.98V97.1211C117.98 97.8674 118.294 98.2051 118.993 98.2051C119.15 98.2051 119.464 98.1816 119.558 98.1659V99.3127C119.394 99.352 119.016 99.3756 118.694 99.3756C117.194 99.3756 116.613 98.7629 116.613 97.1918V92.2665H115.395V91.1432H116.613V89.1715ZM124.067 92.1879C122.787 92.1879 121.892 93.1699 121.805 94.5288H126.243C126.212 93.162 125.356 92.1879 124.067 92.1879ZM126.212 96.9718H127.555C127.32 98.4015 125.937 99.4541 124.154 99.4541C121.813 99.4541 120.391 97.8281 120.391 95.2594C120.391 92.7221 121.837 91.0018 124.091 91.0018C126.298 91.0018 127.657 92.6043 127.657 95.0787V95.5972H121.797V95.6757C121.797 97.2389 122.716 98.268 124.185 98.268C125.222 98.268 125.984 97.7417 126.212 96.9718ZM124.712 89.9649H123.518L125.167 87.6083H126.644L124.712 89.9649ZM132.363 98.1737C133.785 98.1737 134.735 96.9954 134.735 95.1965C134.735 93.3977 133.785 92.2036 132.363 92.2036C130.957 92.2036 130.038 93.3662 130.038 95.1965C130.038 97.0268 130.957 98.1737 132.363 98.1737ZM132.41 102.392C130.611 102.392 129.189 101.379 128.961 99.9883H130.367C130.635 100.735 131.444 101.229 132.465 101.229C133.879 101.229 134.735 100.412 134.735 99.1949V97.9066H134.704C134.201 98.7943 133.235 99.3756 132.088 99.3756C130.006 99.3756 128.639 97.7338 128.639 95.1965C128.639 92.6357 130.006 91.0018 132.119 91.0018C133.274 91.0018 134.232 91.5674 134.774 92.5179H134.798V91.1432H136.102V99.1478C136.102 101.096 134.664 102.392 132.41 102.392ZM137.956 99.3127V91.1432H139.323V99.3127H137.956ZM138.639 89.7685C138.176 89.7685 137.791 89.3836 137.791 88.9201C137.791 88.4488 138.176 88.0717 138.639 88.0717C139.11 88.0717 139.495 88.4488 139.495 88.9201C139.495 89.3836 139.11 89.7685 138.639 89.7685ZM143.863 98.2915C145.151 98.2915 146.141 97.3882 146.141 96.2099V95.5422L143.957 95.6757C142.857 95.7464 142.229 96.2334 142.229 97.0033C142.229 97.7809 142.881 98.2915 143.863 98.2915ZM143.557 99.4541C141.931 99.4541 140.839 98.4722 140.839 97.0033C140.839 95.605 141.915 94.7252 143.8 94.6152L146.141 94.4817V93.7983C146.141 92.8007 145.481 92.2036 144.35 92.2036C143.297 92.2036 142.638 92.6985 142.465 93.4998H141.145C141.239 92.0858 142.449 91.0018 144.381 91.0018C146.298 91.0018 147.508 92.0387 147.508 93.6647V99.3127H146.212V97.9066H146.18C145.693 98.8414 144.656 99.4541 143.557 99.4541ZM149.102 93.3977C149.102 91.9994 150.351 91.0018 152.15 91.0018C153.839 91.0018 155.08 92.0073 155.143 93.3898H153.839C153.745 92.6043 153.109 92.1172 152.103 92.1172C151.106 92.1172 150.446 92.6121 150.446 93.327C150.446 93.8925 150.878 94.2696 151.805 94.5053L153.069 94.8116C154.719 95.228 155.316 95.825 155.316 97.0268C155.316 98.4487 153.973 99.4541 152.064 99.4541C150.273 99.4541 149.024 98.4801 148.883 97.0347H150.249C150.399 97.8831 151.043 98.3387 152.15 98.3387C153.258 98.3387 153.941 97.8674 153.941 97.129C153.941 96.5477 153.604 96.2334 152.685 95.9899L151.247 95.6207C149.809 95.2515 149.102 94.5131 149.102 93.3977ZM160.037 99.3127V91.1432H161.325V92.4472H161.357C161.812 91.5674 162.684 91.0018 163.949 91.0018C165.74 91.0018 166.777 92.1565 166.777 94.0104V99.3127H165.41V94.2539C165.41 92.9342 164.79 92.2115 163.533 92.2115C162.245 92.2115 161.404 93.1227 161.404 94.5053V99.3127H160.037ZM171.215 98.2915C172.504 98.2915 173.493 97.3882 173.493 96.2099V95.5422L171.31 95.6757C170.21 95.7464 169.581 96.2334 169.581 97.0033C169.581 97.7809 170.233 98.2915 171.215 98.2915ZM170.909 99.4541C169.283 99.4541 168.191 98.4722 168.191 97.0033C168.191 95.605 169.267 94.7252 171.152 94.6152L173.493 94.4817V93.7983C173.493 92.8007 172.834 92.2036 171.702 92.2036C170.65 92.2036 169.99 92.6985 169.817 93.4998H168.497C168.592 92.0858 169.801 91.0018 171.734 91.0018C173.65 91.0018 174.86 92.0387 174.86 93.6647V99.3127H173.564V97.9066H173.533C173.046 98.8414 172.009 99.4541 170.909 99.4541ZM172.7 89.902C171.663 89.902 171.27 88.708 170.65 88.708C170.288 88.708 170.061 89.0929 170.092 89.8235H169.165C169.165 88.5352 169.762 87.8204 170.658 87.8204C171.765 87.8204 172.119 89.0144 172.708 89.0144C173.038 89.0144 173.25 88.6452 173.25 87.8911H174.177C174.177 89.1479 173.556 89.902 172.7 89.902ZM179.982 99.4541C177.72 99.4541 176.196 97.8281 176.196 95.228C176.196 92.62 177.72 91.0018 179.982 91.0018C182.236 91.0018 183.76 92.62 183.76 95.228C183.76 97.8281 182.236 99.4541 179.982 99.4541ZM179.982 98.2523C181.427 98.2523 182.37 97.1525 182.37 95.228C182.37 93.3034 181.427 92.2036 179.982 92.2036C178.537 92.2036 177.586 93.3034 177.586 95.228C177.586 97.1525 178.537 98.2523 179.982 98.2523ZM188.301 93.3977C188.301 91.9994 189.55 91.0018 191.349 91.0018C193.037 91.0018 194.279 92.0073 194.341 93.3898H193.037C192.943 92.6043 192.307 92.1172 191.301 92.1172C190.304 92.1172 189.644 92.6121 189.644 93.327C189.644 93.8925 190.076 94.2696 191.003 94.5053L192.268 94.8116C193.917 95.228 194.514 95.825 194.514 97.0268C194.514 98.4487 193.171 99.4541 191.262 99.4541C189.471 99.4541 188.222 98.4801 188.081 97.0347H189.448C189.597 97.8831 190.241 98.3387 191.349 98.3387C192.456 98.3387 193.14 97.8674 193.14 97.129C193.14 96.5477 192.802 96.2334 191.883 95.9899L190.445 95.6207C189.008 95.2515 188.301 94.5131 188.301 93.3977ZM198.631 98.2915C199.919 98.2915 200.909 97.3882 200.909 96.2099V95.5422L198.725 95.6757C197.625 95.7464 196.997 96.2334 196.997 97.0033C196.997 97.7809 197.649 98.2915 198.631 98.2915ZM198.324 99.4541C196.698 99.4541 195.606 98.4722 195.606 97.0033C195.606 95.605 196.682 94.7252 198.568 94.6152L200.909 94.4817V93.7983C200.909 92.8007 200.249 92.2036 199.118 92.2036C198.065 92.2036 197.405 92.6985 197.232 93.4998H195.913C196.007 92.0858 197.217 91.0018 199.149 91.0018C201.066 91.0018 202.275 92.0387 202.275 93.6647V99.3127H200.979V97.9066H200.948C200.461 98.8414 199.424 99.4541 198.324 99.4541ZM200.115 89.902C199.078 89.902 198.686 88.708 198.065 88.708C197.704 88.708 197.476 89.0929 197.507 89.8235H196.58C196.58 88.5352 197.177 87.8204 198.073 87.8204C199.18 87.8204 199.534 89.0144 200.123 89.0144C200.453 89.0144 200.665 88.6452 200.665 87.8911H201.592C201.592 89.1479 200.971 89.902 200.115 89.902ZM207.397 99.4541C205.135 99.4541 203.611 97.8281 203.611 95.228C203.611 92.62 205.135 91.0018 207.397 91.0018C209.652 91.0018 211.176 92.62 211.176 95.228C211.176 97.8281 209.652 99.4541 207.397 99.4541ZM207.397 98.2523C208.842 98.2523 209.785 97.1525 209.785 95.228C209.785 93.3034 208.842 92.2036 207.397 92.2036C205.952 92.2036 205.001 93.3034 205.001 95.228C205.001 97.1525 205.952 98.2523 207.397 98.2523ZM215.716 93.3977C215.716 91.9994 216.965 91.0018 218.764 91.0018C220.453 91.0018 221.694 92.0073 221.757 93.3898H220.453C220.358 92.6043 219.722 92.1172 218.717 92.1172C217.719 92.1172 217.059 92.6121 217.059 93.327C217.059 93.8925 217.491 94.2696 218.418 94.5053L219.683 94.8116C221.333 95.228 221.93 95.825 221.93 97.0268C221.93 98.4487 220.586 99.4541 218.677 99.4541C216.886 99.4541 215.637 98.4801 215.496 97.0347H216.863C217.012 97.8831 217.656 98.3387 218.764 98.3387C219.871 98.3387 220.555 97.8674 220.555 97.129C220.555 96.5477 220.217 96.2334 219.298 95.9899L217.86 95.6207C216.423 95.2515 215.716 94.5131 215.716 93.3977ZM230.06 91.1432V99.3127H228.764V97.9852H228.732C228.245 98.9278 227.397 99.4541 226.14 99.4541C224.357 99.4541 223.312 98.2994 223.312 96.4455V91.1432H224.679V96.202C224.679 97.5296 225.299 98.2444 226.564 98.2444C227.892 98.2444 228.693 97.3332 228.693 95.9428V91.1432H230.06ZM235.802 91.0018C237.884 91.0018 239.298 92.6671 239.298 95.228C239.298 97.7888 237.892 99.4541 235.833 99.4541C234.663 99.4541 233.72 98.8807 233.233 97.9852H233.202V102.039H231.835V91.1432H233.131V92.5257H233.163C233.665 91.6066 234.616 91.0018 235.802 91.0018ZM235.535 98.2523C236.988 98.2523 237.899 97.0818 237.899 95.228C237.899 93.3819 236.988 92.2036 235.535 92.2036C234.137 92.2036 233.194 93.4134 233.194 95.228C233.194 97.0504 234.137 98.2523 235.535 98.2523ZM244.066 99.4541C241.804 99.4541 240.28 97.8281 240.28 95.228C240.28 92.62 241.804 91.0018 244.066 91.0018C246.32 91.0018 247.844 92.62 247.844 95.228C247.844 97.8281 246.32 99.4541 244.066 99.4541ZM244.066 98.2523C245.511 98.2523 246.454 97.1525 246.454 95.228C246.454 93.3034 245.511 92.2036 244.066 92.2036C242.621 92.2036 241.67 93.3034 241.67 95.228C241.67 97.1525 242.621 98.2523 244.066 98.2523ZM249.085 93.3977C249.085 91.9994 250.334 91.0018 252.133 91.0018C253.822 91.0018 255.063 92.0073 255.126 93.3898H253.822C253.728 92.6043 253.092 92.1172 252.086 92.1172C251.089 92.1172 250.429 92.6121 250.429 93.327C250.429 93.8925 250.861 94.2696 251.788 94.5053L253.052 94.8116C254.702 95.228 255.299 95.825 255.299 97.0268C255.299 98.4487 253.956 99.4541 252.047 99.4541C250.256 99.4541 249.007 98.4801 248.866 97.0347H250.232C250.382 97.8831 251.026 98.3387 252.133 98.3387C253.241 98.3387 253.924 97.8674 253.924 97.129C253.924 96.5477 253.587 96.2334 252.668 95.9899L251.23 95.6207C249.792 95.2515 249.085 94.5131 249.085 93.3977ZM256.792 99.3127V91.1432H258.158V99.3127H256.792ZM257.475 89.7685C257.012 89.7685 256.627 89.3836 256.627 88.9201C256.627 88.4488 257.012 88.0717 257.475 88.0717C257.946 88.0717 258.331 88.4488 258.331 88.9201C258.331 89.3836 257.946 89.7685 257.475 89.7685ZM265.464 96.6812H266.807C266.619 98.1344 265.503 99.2106 263.94 99.4149L263.547 100.334C264.568 100.35 265.228 100.79 265.228 101.591C265.228 102.486 264.411 102.973 263.39 102.989C262.934 102.997 262.416 102.942 262.212 102.879V102.078C262.385 102.117 262.864 102.172 263.194 102.172C263.846 102.172 264.191 101.968 264.191 101.607C264.191 101.245 263.846 101.104 263.044 101.104H262.495V100.562L262.942 99.4306C260.923 99.242 259.604 97.6867 259.604 95.228C259.604 92.6514 261.104 91.0018 263.359 91.0018C265.401 91.0018 266.619 92.3529 266.791 93.8218H265.456C265.26 92.9342 264.568 92.2036 263.367 92.2036C261.953 92.2036 260.994 93.3741 260.994 95.228C260.994 97.129 261.968 98.2523 263.382 98.2523C264.498 98.2523 265.228 97.6631 265.464 96.6812ZM271.45 99.4541C269.187 99.4541 267.663 97.8281 267.663 95.228C267.663 92.62 269.187 91.0018 271.45 91.0018C273.704 91.0018 275.228 92.62 275.228 95.228C275.228 97.8281 273.704 99.4541 271.45 99.4541ZM271.45 98.2523C272.895 98.2523 273.838 97.1525 273.838 95.228C273.838 93.3034 272.895 92.2036 271.45 92.2036C270.004 92.2036 269.054 93.3034 269.054 95.228C269.054 97.1525 270.004 98.2523 271.45 98.2523ZM272.51 89.902C271.473 89.902 271.08 88.708 270.46 88.708C270.099 88.708 269.871 89.0929 269.902 89.8235H268.975C268.975 88.5352 269.572 87.8204 270.468 87.8204C271.575 87.8204 271.929 89.0144 272.518 89.0144C272.848 89.0144 273.06 88.6452 273.06 87.8911H273.987C273.987 89.1479 273.366 89.902 272.51 89.902ZM279.886 92.1879C278.606 92.1879 277.71 93.1699 277.624 94.5288H282.062C282.031 93.162 281.175 92.1879 279.886 92.1879ZM282.031 96.9718H283.374C283.138 98.4015 281.756 99.4541 279.973 99.4541C277.632 99.4541 276.21 97.8281 276.21 95.2594C276.21 92.7221 277.655 91.0018 279.91 91.0018C282.117 91.0018 283.476 92.6043 283.476 95.0787V95.5972H277.616V95.6757C277.616 97.2389 278.535 98.268 280.004 98.268C281.041 98.268 281.803 97.7417 282.031 96.9718ZM284.717 93.3977C284.717 91.9994 285.966 91.0018 287.765 91.0018C289.454 91.0018 290.695 92.0073 290.758 93.3898H289.454C289.36 92.6043 288.724 92.1172 287.718 92.1172C286.72 92.1172 286.061 92.6121 286.061 93.327C286.061 93.8925 286.493 94.2696 287.42 94.5053L288.684 94.8116C290.334 95.228 290.931 95.825 290.931 97.0268C290.931 98.4487 289.588 99.4541 287.679 99.4541C285.888 99.4541 284.639 98.4801 284.497 97.0347H285.864C286.014 97.8831 286.658 98.3387 287.765 98.3387C288.873 98.3387 289.556 97.8674 289.556 97.129C289.556 96.5477 289.218 96.2334 288.299 95.9899L286.862 95.6207C285.424 95.2515 284.717 94.5131 284.717 93.3977ZM302.808 95.3536H294.764V94.0811H302.808V95.3536ZM306.854 93.3977C306.854 91.9994 308.103 91.0018 309.902 91.0018C311.591 91.0018 312.832 92.0073 312.895 93.3898H311.591C311.496 92.6043 310.86 92.1172 309.855 92.1172C308.857 92.1172 308.197 92.6121 308.197 93.327C308.197 93.8925 308.629 94.2696 309.556 94.5053L310.821 94.8116C312.47 95.228 313.067 95.825 313.067 97.0268C313.067 98.4487 311.724 99.4541 309.815 99.4541C308.024 99.4541 306.775 98.4801 306.634 97.0347H308.001C308.15 97.8831 308.794 98.3387 309.902 98.3387C311.009 98.3387 311.693 97.8674 311.693 97.129C311.693 96.5477 311.355 96.2334 310.436 95.9899L308.998 95.6207C307.561 95.2515 306.854 94.5131 306.854 93.3977ZM317.184 98.2915C318.472 98.2915 319.462 97.3882 319.462 96.2099V95.5422L317.278 95.6757C316.178 95.7464 315.55 96.2334 315.55 97.0033C315.55 97.7809 316.202 98.2915 317.184 98.2915ZM316.877 99.4541C315.251 99.4541 314.159 98.4722 314.159 97.0033C314.159 95.605 315.235 94.7252 317.121 94.6152L319.462 94.4817V93.7983C319.462 92.8007 318.802 92.2036 317.671 92.2036C316.618 92.2036 315.958 92.6985 315.785 93.4998H314.466C314.56 92.0858 315.77 91.0018 317.702 91.0018C319.619 91.0018 320.828 92.0387 320.828 93.6647V99.3127H319.532V97.9066H319.501C319.014 98.8414 317.977 99.4541 316.877 99.4541ZM318.668 89.902C317.631 89.902 317.239 88.708 316.618 88.708C316.257 88.708 316.029 89.0929 316.06 89.8235H315.133C315.133 88.5352 315.73 87.8204 316.626 87.8204C317.733 87.8204 318.087 89.0144 318.676 89.0144C319.006 89.0144 319.218 88.6452 319.218 87.8911H320.145C320.145 89.1479 319.524 89.902 318.668 89.902ZM325.95 99.4541C323.688 99.4541 322.164 97.8281 322.164 95.228C322.164 92.62 323.688 91.0018 325.95 91.0018C328.205 91.0018 329.729 92.62 329.729 95.228C329.729 97.8281 328.205 99.4541 325.95 99.4541ZM325.95 98.2523C327.396 98.2523 328.338 97.1525 328.338 95.228C328.338 93.3034 327.396 92.2036 325.95 92.2036C324.505 92.2036 323.554 93.3034 323.554 95.228C323.554 97.1525 324.505 98.2523 325.95 98.2523ZM334.85 89.1715H336.217V91.1432H337.804V92.2665H336.217V97.1211C336.217 97.8674 336.531 98.2051 337.23 98.2051C337.388 98.2051 337.702 98.1816 337.796 98.1659V99.3127C337.631 99.352 337.254 99.3756 336.932 99.3756C335.432 99.3756 334.85 98.7629 334.85 97.1918V92.2665H333.633V91.1432H334.85V89.1715ZM342.305 92.1879C341.025 92.1879 340.129 93.1699 340.043 94.5288H344.481C344.45 93.162 343.593 92.1879 342.305 92.1879ZM344.45 96.9718H345.793C345.557 98.4015 344.175 99.4541 342.391 99.4541C340.051 99.4541 338.629 97.8281 338.629 95.2594C338.629 92.7221 340.074 91.0018 342.329 91.0018C344.536 91.0018 345.895 92.6043 345.895 95.0787V95.5972H340.035V95.6757C340.035 97.2389 340.954 98.268 342.423 98.268C343.46 98.268 344.222 97.7417 344.45 96.9718ZM347.136 93.3977C347.136 91.9994 348.385 91.0018 350.184 91.0018C351.873 91.0018 353.114 92.0073 353.177 93.3898H351.873C351.779 92.6043 351.142 92.1172 350.137 92.1172C349.139 92.1172 348.479 92.6121 348.479 93.327C348.479 93.8925 348.911 94.2696 349.838 94.5053L351.103 94.8116C352.753 95.228 353.35 95.825 353.35 97.0268C353.35 98.4487 352.006 99.4541 350.097 99.4541C348.306 99.4541 347.057 98.4801 346.916 97.0347H348.283C348.432 97.8831 349.076 98.3387 350.184 98.3387C351.292 98.3387 351.975 97.8674 351.975 97.129C351.975 96.5477 351.637 96.2334 350.718 95.9899L349.281 95.6207C347.843 95.2515 347.136 94.5131 347.136 93.3977ZM355.211 89.1715H356.578V91.1432H358.165V92.2665H356.578V97.1211C356.578 97.8674 356.892 98.2051 357.592 98.2051C357.749 98.2051 358.063 98.1816 358.157 98.1659V99.3127C357.992 99.352 357.615 99.3756 357.293 99.3756C355.793 99.3756 355.211 98.7629 355.211 97.1918V92.2665H353.994V91.1432H355.211V89.1715ZM362.163 98.2915C363.452 98.2915 364.441 97.3882 364.441 96.2099V95.5422L362.258 95.6757C361.158 95.7464 360.529 96.2334 360.529 97.0033C360.529 97.7809 361.181 98.2915 362.163 98.2915ZM361.857 99.4541C360.231 99.4541 359.139 98.4722 359.139 97.0033C359.139 95.605 360.215 94.7252 362.1 94.6152L364.441 94.4817V93.7983C364.441 92.8007 363.782 92.2036 362.65 92.2036C361.598 92.2036 360.938 92.6985 360.765 93.4998H359.445C359.54 92.0858 360.749 91.0018 362.682 91.0018C364.599 91.0018 365.808 92.0387 365.808 93.6647V99.3127H364.512V97.9066H364.481C363.994 98.8414 362.957 99.4541 361.857 99.4541ZM370.639 99.4541C368.558 99.4541 367.144 97.7888 367.144 95.228C367.144 92.6671 368.55 91.0018 370.608 91.0018C371.778 91.0018 372.721 91.5752 373.208 92.4707H373.239V87.9775H374.606V99.3127H373.302V97.9302H373.279C372.752 98.8728 371.818 99.4541 370.639 99.4541ZM370.898 92.2036C369.453 92.2036 368.542 93.3819 368.542 95.228C368.542 97.0818 369.453 98.2523 370.898 98.2523C372.305 98.2523 373.247 97.0583 373.247 95.228C373.247 93.4055 372.305 92.2036 370.898 92.2036ZM379.147 98.2915C380.435 98.2915 381.425 97.3882 381.425 96.2099V95.5422L379.241 95.6757C378.141 95.7464 377.513 96.2334 377.513 97.0033C377.513 97.7809 378.165 98.2915 379.147 98.2915ZM378.84 99.4541C377.214 99.4541 376.122 98.4722 376.122 97.0033C376.122 95.605 377.198 94.7252 379.084 94.6152L381.425 94.4817V93.7983C381.425 92.8007 380.765 92.2036 379.634 92.2036C378.581 92.2036 377.921 92.6985 377.748 93.4998H376.429C376.523 92.0858 377.733 91.0018 379.665 91.0018C381.582 91.0018 382.792 92.0387 382.792 93.6647V99.3127H381.495V97.9066H381.464C380.977 98.8414 379.94 99.4541 378.84 99.4541ZM384.386 93.3977C384.386 91.9994 385.635 91.0018 387.434 91.0018C389.123 91.0018 390.364 92.0073 390.427 93.3898H389.123C389.029 92.6043 388.392 92.1172 387.387 92.1172C386.389 92.1172 385.729 92.6121 385.729 93.327C385.729 93.8925 386.161 94.2696 387.088 94.5053L388.353 94.8116C390.003 95.228 390.6 95.825 390.6 97.0268C390.6 98.4487 389.256 99.4541 387.348 99.4541C385.557 99.4541 384.308 98.4801 384.166 97.0347H385.533C385.682 97.8831 386.326 98.3387 387.434 98.3387C388.542 98.3387 389.225 97.8674 389.225 97.129C389.225 96.5477 388.887 96.2334 387.968 95.9899L386.531 95.6207C385.093 95.2515 384.386 94.5131 384.386 93.3977ZM392.956 101.567H391.817L392.579 97.5689H394.033L392.956 101.567ZM402.006 99.4541C399.743 99.4541 398.219 97.8281 398.219 95.228C398.219 92.62 399.743 91.0018 402.006 91.0018C404.26 91.0018 405.784 92.62 405.784 95.228C405.784 97.8281 404.26 99.4541 402.006 99.4541ZM402.006 98.2523C403.451 98.2523 404.394 97.1525 404.394 95.228C404.394 93.3034 403.451 92.2036 402.006 92.2036C400.56 92.2036 399.61 93.3034 399.61 95.228C399.61 97.1525 400.56 98.2523 402.006 98.2523ZM407.607 89.1715H408.973V91.1432H410.56V92.2665H408.973V97.1211C408.973 97.8674 409.288 98.2051 409.987 98.2051C410.144 98.2051 410.458 98.1816 410.552 98.1659V99.3127C410.387 99.352 410.01 99.3756 409.688 99.3756C408.188 99.3756 407.607 98.7629 407.607 97.1918V92.2665H406.389V91.1432H407.607V89.1715ZM412.092 99.3127V91.1432H413.459V99.3127H412.092ZM412.775 89.7685C412.312 89.7685 411.927 89.3836 411.927 88.9201C411.927 88.4488 412.312 88.0717 412.775 88.0717C413.247 88.0717 413.632 88.4488 413.632 88.9201C413.632 89.3836 413.247 89.7685 412.775 89.7685ZM415.305 99.3127V91.1432H416.593V92.4472H416.625C417.009 91.5831 417.842 91.0018 418.942 91.0018C420.057 91.0018 420.882 91.5674 421.236 92.5571H421.267C421.723 91.5831 422.681 91.0018 423.828 91.0018C425.446 91.0018 426.491 92.0544 426.491 93.6726V99.3127H425.124V93.9868C425.124 92.8714 424.503 92.2115 423.427 92.2115C422.343 92.2115 421.581 93.0127 421.581 94.1204V99.3127H420.214V93.8376C420.214 92.8556 419.555 92.2115 418.541 92.2115C417.457 92.2115 416.672 93.0599 416.672 94.1911V99.3127H415.305ZM428.305 99.3127V91.1432H429.672V99.3127H428.305ZM428.989 89.7685C428.525 89.7685 428.14 89.3836 428.14 88.9201C428.14 88.4488 428.525 88.0717 428.989 88.0717C429.46 88.0717 429.845 88.4488 429.845 88.9201C429.845 89.3836 429.46 89.7685 428.989 89.7685ZM431.345 99.3127V98.3387L435.87 92.2901V92.2665H431.353V91.1432H437.418V92.1408L432.924 98.1659V98.1894H437.441V99.3127H431.345ZM441.738 98.2915C443.026 98.2915 444.016 97.3882 444.016 96.2099V95.5422L441.832 95.6757C440.733 95.7464 440.104 96.2334 440.104 97.0033C440.104 97.7809 440.756 98.2915 441.738 98.2915ZM441.432 99.4541C439.806 99.4541 438.714 98.4722 438.714 97.0033C438.714 95.605 439.79 94.7252 441.675 94.6152L444.016 94.4817V93.7983C444.016 92.8007 443.356 92.2036 442.225 92.2036C441.173 92.2036 440.513 92.6985 440.34 93.4998H439.02C439.114 92.0858 440.324 91.0018 442.257 91.0018C444.173 91.0018 445.383 92.0387 445.383 93.6647V99.3127H444.087V97.9066H444.055C443.568 98.8414 442.532 99.4541 441.432 99.4541ZM450.214 99.4541C448.132 99.4541 446.718 97.7888 446.718 95.228C446.718 92.6671 448.124 91.0018 450.183 91.0018C451.353 91.0018 452.296 91.5752 452.783 92.4707H452.814V87.9775H454.181V99.3127H452.877V97.9302H452.853C452.327 98.8728 451.392 99.4541 450.214 99.4541ZM450.473 92.2036C449.028 92.2036 448.117 93.3819 448.117 95.228C448.117 97.0818 449.028 98.2523 450.473 98.2523C451.879 98.2523 452.822 97.0583 452.822 95.228C452.822 93.4055 451.879 92.2036 450.473 92.2036ZM458.721 98.2915C460.01 98.2915 460.999 97.3882 460.999 96.2099V95.5422L458.816 95.6757C457.716 95.7464 457.087 96.2334 457.087 97.0033C457.087 97.7809 457.739 98.2915 458.721 98.2915ZM458.415 99.4541C456.789 99.4541 455.697 98.4722 455.697 97.0033C455.697 95.605 456.773 94.7252 458.659 94.6152L460.999 94.4817V93.7983C460.999 92.8007 460.34 92.2036 459.208 92.2036C458.156 92.2036 457.496 92.6985 457.323 93.4998H456.003C456.098 92.0858 457.307 91.0018 459.24 91.0018C461.157 91.0018 462.366 92.0387 462.366 93.6647V99.3127H461.07V97.9066H461.039C460.552 98.8414 459.515 99.4541 458.415 99.4541ZM463.961 93.3977C463.961 91.9994 465.21 91.0018 467.009 91.0018C468.698 91.0018 469.939 92.0073 470.002 93.3898H468.698C468.603 92.6043 467.967 92.1172 466.962 92.1172C465.964 92.1172 465.304 92.6121 465.304 93.327C465.304 93.8925 465.736 94.2696 466.663 94.5053L467.928 94.8116C469.577 95.228 470.174 95.825 470.174 97.0268C470.174 98.4487 468.831 99.4541 466.922 99.4541C465.131 99.4541 463.882 98.4801 463.741 97.0347H465.108C465.257 97.8831 465.901 98.3387 467.009 98.3387C468.116 98.3387 468.8 97.8674 468.8 97.129C468.8 96.5477 468.462 96.2334 467.543 95.9899L466.105 95.6207C464.668 95.2515 463.961 94.5131 463.961 93.3977ZM478.171 92.1879C476.891 92.1879 475.995 93.1699 475.909 94.5288H480.347C480.316 93.162 479.46 92.1879 478.171 92.1879ZM480.316 96.9718H481.659C481.423 98.4015 480.041 99.4541 478.258 99.4541C475.917 99.4541 474.495 97.8281 474.495 95.2594C474.495 92.7221 475.94 91.0018 478.195 91.0018C480.402 91.0018 481.761 92.6043 481.761 95.0787V95.5972H475.901V95.6757C475.901 97.2389 476.82 98.268 478.289 98.268C479.326 98.268 480.088 97.7417 480.316 96.9718ZM493.144 91.1432L490.143 99.3127H488.745L485.736 91.1432H487.173L489.428 97.8595H489.459L491.722 91.1432H493.144ZM496.757 98.2915C498.045 98.2915 499.035 97.3882 499.035 96.2099V95.5422L496.851 95.6757C495.752 95.7464 495.123 96.2334 495.123 97.0033C495.123 97.7809 495.775 98.2915 496.757 98.2915ZM496.451 99.4541C494.825 99.4541 493.733 98.4722 493.733 97.0033C493.733 95.605 494.809 94.7252 496.694 94.6152L499.035 94.4817V93.7983C499.035 92.8007 498.375 92.2036 497.244 92.2036C496.191 92.2036 495.532 92.6985 495.359 93.4998H494.039C494.133 92.0858 495.343 91.0018 497.275 91.0018C499.192 91.0018 500.402 92.0387 500.402 93.6647V99.3127H499.106V97.9066H499.074C498.587 98.8414 497.55 99.4541 496.451 99.4541ZM502.209 99.3127V87.9775H503.575V99.3127H502.209ZM505.492 99.3127V91.1432H506.859V99.3127H505.492ZM506.176 89.7685C505.712 89.7685 505.327 89.3836 505.327 88.9201C505.327 88.4488 505.712 88.0717 506.176 88.0717C506.647 88.0717 507.032 88.4488 507.032 88.9201C507.032 89.3836 506.647 89.7685 506.176 89.7685ZM511.8 99.4541C509.718 99.4541 508.304 97.7888 508.304 95.228C508.304 92.6671 509.71 91.0018 511.769 91.0018C512.939 91.0018 513.882 91.5752 514.369 92.4707H514.4V87.9775H515.767V99.3127H514.463V97.9302H514.439C513.913 98.8728 512.978 99.4541 511.8 99.4541ZM512.059 92.2036C510.614 92.2036 509.703 93.3819 509.703 95.228C509.703 97.0818 510.614 98.2523 512.059 98.2523C513.465 98.2523 514.408 97.0583 514.408 95.228C514.408 93.4055 513.465 92.2036 512.059 92.2036ZM520.307 98.2915C521.596 98.2915 522.585 97.3882 522.585 96.2099V95.5422L520.402 95.6757C519.302 95.7464 518.673 96.2334 518.673 97.0033C518.673 97.7809 519.325 98.2915 520.307 98.2915ZM520.001 99.4541C518.375 99.4541 517.283 98.4722 517.283 97.0033C517.283 95.605 518.359 94.7252 520.245 94.6152L522.585 94.4817V93.7983C522.585 92.8007 521.926 92.2036 520.794 92.2036C519.742 92.2036 519.082 92.6985 518.909 93.4998H517.589C517.684 92.0858 518.893 91.0018 520.826 91.0018C522.743 91.0018 523.952 92.0387 523.952 93.6647V99.3127H522.656V97.9066H522.625C522.138 98.8414 521.101 99.4541 520.001 99.4541ZM528.783 99.4541C526.702 99.4541 525.288 97.7888 525.288 95.228C525.288 92.6671 526.694 91.0018 528.752 91.0018C529.922 91.0018 530.865 91.5752 531.352 92.4707H531.383V87.9775H532.75V99.3127H531.446V97.9302H531.423C530.896 98.8728 529.962 99.4541 528.783 99.4541ZM529.043 92.2036C527.597 92.2036 526.686 93.3819 526.686 95.228C526.686 97.0818 527.597 98.2523 529.043 98.2523C530.449 98.2523 531.391 97.0583 531.391 95.228C531.391 93.4055 530.449 92.2036 529.043 92.2036ZM537.291 98.2915C538.579 98.2915 539.569 97.3882 539.569 96.2099V95.5422L537.385 95.6757C536.285 95.7464 535.657 96.2334 535.657 97.0033C535.657 97.7809 536.309 98.2915 537.291 98.2915ZM536.984 99.4541C535.358 99.4541 534.266 98.4722 534.266 97.0033C534.266 95.605 535.343 94.7252 537.228 94.6152L539.569 94.4817V93.7983C539.569 92.8007 538.909 92.2036 537.778 92.2036C536.725 92.2036 536.065 92.6985 535.892 93.4998H534.573C534.667 92.0858 535.877 91.0018 537.809 91.0018C539.726 91.0018 540.936 92.0387 540.936 93.6647V99.3127H539.639V97.9066H539.608C539.121 98.8414 538.084 99.4541 536.984 99.4541ZM542.53 93.3977C542.53 91.9994 543.779 91.0018 545.578 91.0018C547.267 91.0018 548.508 92.0073 548.571 93.3898H547.267C547.173 92.6043 546.536 92.1172 545.531 92.1172C544.533 92.1172 543.873 92.6121 543.873 93.327C543.873 93.8925 544.306 94.2696 545.232 94.5053L546.497 94.8116C548.147 95.228 548.744 95.825 548.744 97.0268C548.744 98.4487 547.401 99.4541 545.492 99.4541C543.701 99.4541 542.452 98.4801 542.31 97.0347H543.677C543.826 97.8831 544.47 98.3387 545.578 98.3387C546.686 98.3387 547.369 97.8674 547.369 97.129C547.369 96.5477 547.031 96.2334 546.112 95.9899L544.675 95.6207C543.237 95.2515 542.53 94.5131 542.53 93.3977ZM33.0082 115.002C35.0898 115.002 36.5038 116.667 36.5038 119.228C36.5038 121.789 35.0977 123.454 33.0396 123.454C31.8691 123.454 30.9265 122.881 30.4395 121.985H30.4081V126.039H29.0412V115.143H30.3374V116.526H30.3688C30.8715 115.607 31.822 115.002 33.0082 115.002ZM32.7411 122.252C34.1943 122.252 35.1056 121.082 35.1056 119.228C35.1056 117.382 34.1943 116.204 32.7411 116.204C31.3428 116.204 30.4002 117.413 30.4002 119.228C30.4002 121.05 31.3428 122.252 32.7411 122.252ZM40.5807 122.292C41.869 122.292 42.8588 121.388 42.8588 120.21V119.542L40.675 119.676C39.5753 119.746 38.9468 120.233 38.9468 121.003C38.9468 121.781 39.5988 122.292 40.5807 122.292ZM40.2744 123.454C38.6483 123.454 37.5564 122.472 37.5564 121.003C37.5564 119.605 38.6326 118.725 40.5179 118.615L42.8588 118.482V117.798C42.8588 116.801 42.1989 116.204 41.0678 116.204C40.0152 116.204 39.3553 116.699 39.1825 117.5H37.8628C37.957 116.086 39.1668 115.002 41.0992 115.002C43.0159 115.002 44.2256 116.039 44.2256 117.665V123.313H42.9295V121.907H42.8981C42.411 122.841 41.3741 123.454 40.2744 123.454ZM45.9617 123.313V115.143H47.2499V116.479H47.2814C47.5484 115.575 48.3026 115.002 49.2609 115.002C49.4966 115.002 49.7008 115.041 49.8108 115.057V116.384C49.7008 116.345 49.4102 116.306 49.0802 116.306C48.0198 116.306 47.3285 117.068 47.3285 118.222V123.313H45.9617ZM53.4635 122.292C54.7518 122.292 55.7416 121.388 55.7416 120.21V119.542L53.5578 119.676C52.458 119.746 51.8296 120.233 51.8296 121.003C51.8296 121.781 52.4816 122.292 53.4635 122.292ZM53.1572 123.454C51.5311 123.454 50.4392 122.472 50.4392 121.003C50.4392 119.605 51.5154 118.725 53.4007 118.615L55.7416 118.482V117.798C55.7416 116.801 55.0817 116.204 53.9506 116.204C52.8979 116.204 52.2381 116.699 52.0653 117.5H50.7456C50.8398 116.086 52.0496 115.002 53.982 115.002C55.8987 115.002 57.1084 116.039 57.1084 117.665V123.313H55.8123V121.907H55.7809C55.2938 122.841 54.2569 123.454 53.1572 123.454ZM65.4665 122.174C66.8883 122.174 67.8388 120.995 67.8388 119.197C67.8388 117.398 66.8883 116.204 65.4665 116.204C64.0604 116.204 63.1413 117.366 63.1413 119.197C63.1413 121.027 64.0604 122.174 65.4665 122.174ZM65.5136 126.392C63.7148 126.392 62.2929 125.379 62.0651 123.988H63.4712C63.7383 124.735 64.5474 125.229 65.5686 125.229C66.9826 125.229 67.8388 124.412 67.8388 123.195V121.907H67.8074C67.3047 122.794 66.3385 123.376 65.1916 123.376C63.1099 123.376 61.7431 121.734 61.7431 119.197C61.7431 116.636 63.1099 115.002 65.223 115.002C66.3777 115.002 67.3361 115.567 67.8781 116.518H67.9017V115.143H69.2057V123.148C69.2057 125.096 67.7681 126.392 65.5136 126.392ZM74.2645 116.188C72.9841 116.188 72.0886 117.17 72.0022 118.529H76.4404C76.409 117.162 75.5528 116.188 74.2645 116.188ZM76.409 120.972H77.7523C77.5166 122.402 76.1341 123.454 74.3509 123.454C72.01 123.454 70.5882 121.828 70.5882 119.259C70.5882 116.722 72.0336 115.002 74.2881 115.002C76.4954 115.002 77.8544 116.604 77.8544 119.079V119.597H71.9943V119.676C71.9943 121.239 72.9134 122.268 74.3823 122.268C75.4192 122.268 76.1812 121.742 76.409 120.972ZM79.2369 123.313V115.143H80.5252V116.479H80.5566C80.8237 115.575 81.5778 115.002 82.5362 115.002C82.7719 115.002 82.9761 115.041 83.0861 115.057V116.384C82.9761 116.345 82.6854 116.306 82.3555 116.306C81.2951 116.306 80.6038 117.068 80.6038 118.222V123.313H79.2369ZM86.7388 122.292C88.0271 122.292 89.0169 121.388 89.0169 120.21V119.542L86.8331 119.676C85.7333 119.746 85.1049 120.233 85.1049 121.003C85.1049 121.781 85.7569 122.292 86.7388 122.292ZM86.4325 123.454C84.8064 123.454 83.7145 122.472 83.7145 121.003C83.7145 119.605 84.7907 118.725 86.676 118.615L89.0169 118.482V117.798C89.0169 116.801 88.357 116.204 87.2258 116.204C86.1732 116.204 85.5134 116.699 85.3406 117.5H84.0209C84.1151 116.086 85.3249 115.002 87.2573 115.002C89.174 115.002 90.3837 116.039 90.3837 117.665V123.313H89.0876V121.907H89.0561C88.5691 122.841 87.5322 123.454 86.4325 123.454ZM92.1197 123.313V115.143H93.408V116.479H93.4394C93.7065 115.575 94.4606 115.002 95.419 115.002C95.6546 115.002 95.8589 115.041 95.9689 115.057V116.384C95.8589 116.345 95.5682 116.306 95.2383 116.306C94.1778 116.306 93.4866 117.068 93.4866 118.222V123.313H92.1197ZM100.384 123.313V115.143H101.672V116.447H101.703C102.088 115.583 102.921 115.002 104.021 115.002C105.136 115.002 105.961 115.567 106.314 116.557H106.346C106.801 115.583 107.76 115.002 108.907 115.002C110.525 115.002 111.57 116.054 111.57 117.673V123.313H110.203V117.987C110.203 116.871 109.582 116.212 108.506 116.212C107.422 116.212 106.66 117.013 106.66 118.12V123.313H105.293V117.838C105.293 116.856 104.633 116.212 103.62 116.212C102.536 116.212 101.75 117.06 101.75 118.191V123.313H100.384ZM116.008 122.292C117.296 122.292 118.286 121.388 118.286 120.21V119.542L116.102 119.676C115.002 119.746 114.374 120.233 114.374 121.003C114.374 121.781 115.026 122.292 116.008 122.292ZM115.702 123.454C114.075 123.454 112.984 122.472 112.984 121.003C112.984 119.605 114.06 118.725 115.945 118.615L118.286 118.482V117.798C118.286 116.801 117.626 116.204 116.495 116.204C115.442 116.204 114.782 116.699 114.61 117.5H113.29C113.384 116.086 114.594 115.002 116.526 115.002C118.443 115.002 119.653 116.039 119.653 117.665V123.313H118.357V121.907H118.325C117.838 122.841 116.801 123.454 115.702 123.454ZM121.459 123.313V115.143H122.826V123.313H121.459ZM122.143 113.768C121.679 113.768 121.295 113.384 121.295 112.92C121.295 112.449 121.679 112.072 122.143 112.072C122.614 112.072 122.999 112.449 122.999 112.92C122.999 113.384 122.614 113.768 122.143 113.768ZM124.531 117.398C124.531 115.999 125.78 115.002 127.579 115.002C129.268 115.002 130.509 116.007 130.572 117.39H129.268C129.173 116.604 128.537 116.117 127.532 116.117C126.534 116.117 125.874 116.612 125.874 117.327C125.874 117.893 126.306 118.27 127.233 118.505L128.498 118.812C130.148 119.228 130.745 119.825 130.745 121.027C130.745 122.449 129.401 123.454 127.492 123.454C125.701 123.454 124.452 122.48 124.311 121.035H125.678C125.827 121.883 126.471 122.339 127.579 122.339C128.686 122.339 129.37 121.867 129.37 121.129C129.37 120.548 129.032 120.233 128.113 119.99L126.675 119.621C125.238 119.252 124.531 118.513 124.531 117.398ZM135.536 123.313V111.977H136.903V123.313H135.536ZM142.025 116.188C140.744 116.188 139.849 117.17 139.762 118.529H144.201C144.169 117.162 143.313 116.188 142.025 116.188ZM144.169 120.972H145.513C145.277 122.402 143.894 123.454 142.111 123.454C139.77 123.454 138.349 121.828 138.349 119.259C138.349 116.722 139.794 115.002 142.048 115.002C144.256 115.002 145.615 116.604 145.615 119.079V119.597H139.755V119.676C139.755 121.239 140.674 122.268 142.143 122.268C143.18 122.268 143.942 121.742 144.169 120.972ZM149.692 122.292C150.98 122.292 151.97 121.388 151.97 120.21V119.542L149.786 119.676C148.686 119.746 148.058 120.233 148.058 121.003C148.058 121.781 148.71 122.292 149.692 122.292ZM149.385 123.454C147.759 123.454 146.667 122.472 146.667 121.003C146.667 119.605 147.744 118.725 149.629 118.615L151.97 118.482V117.798C151.97 116.801 151.31 116.204 150.179 116.204C149.126 116.204 148.466 116.699 148.293 117.5H146.974C147.068 116.086 148.278 115.002 150.21 115.002C152.127 115.002 153.337 116.039 153.337 117.665V123.313H152.04V121.907H152.009C151.522 122.841 150.485 123.454 149.385 123.454ZM158.168 123.454C156.086 123.454 154.672 121.789 154.672 119.228C154.672 116.667 156.078 115.002 158.136 115.002C159.307 115.002 160.249 115.575 160.736 116.471H160.768V111.977H162.135V123.313H160.831V121.93H160.807C160.281 122.873 159.346 123.454 158.168 123.454ZM158.427 116.204C156.981 116.204 156.07 117.382 156.07 119.228C156.07 121.082 156.981 122.252 158.427 122.252C159.833 122.252 160.776 121.058 160.776 119.228C160.776 117.406 159.833 116.204 158.427 116.204ZM163.839 117.398C163.839 115.999 165.088 115.002 166.887 115.002C168.576 115.002 169.817 116.007 169.88 117.39H168.576C168.482 116.604 167.845 116.117 166.84 116.117C165.842 116.117 165.182 116.612 165.182 117.327C165.182 117.893 165.614 118.27 166.541 118.505L167.806 118.812C169.456 119.228 170.053 119.825 170.053 121.027C170.053 122.449 168.709 123.454 166.801 123.454C165.01 123.454 163.761 122.48 163.619 121.035H164.986C165.135 121.883 165.779 122.339 166.887 122.339C167.995 122.339 168.678 121.867 168.678 121.129C168.678 120.548 168.34 120.233 167.421 119.99L165.984 119.621C164.546 119.252 163.839 118.513 163.839 117.398ZM177.853 115.002C179.039 115.002 179.974 115.583 180.5 116.526H180.532V115.143H181.836V126.039H180.469V121.946H180.438C179.927 122.881 178.976 123.454 177.822 123.454C175.756 123.454 174.373 121.789 174.373 119.228C174.373 116.659 175.756 115.002 177.853 115.002ZM178.097 122.252C179.495 122.252 180.469 121.05 180.469 119.228C180.469 117.406 179.495 116.204 178.097 116.204C176.667 116.204 175.771 117.358 175.771 119.228C175.771 121.09 176.667 122.252 178.097 122.252ZM190.327 115.143V123.313H189.031V121.985H189C188.513 122.928 187.664 123.454 186.408 123.454C184.624 123.454 183.58 122.299 183.58 120.446V115.143H184.946V120.202C184.946 121.53 185.567 122.244 186.832 122.244C188.159 122.244 188.961 121.333 188.961 119.943V115.143H190.327ZM194.797 122.292C196.085 122.292 197.075 121.388 197.075 120.21V119.542L194.891 119.676C193.792 119.746 193.163 120.233 193.163 121.003C193.163 121.781 193.815 122.292 194.797 122.292ZM194.491 123.454C192.865 123.454 191.773 122.472 191.773 121.003C191.773 119.605 192.849 118.725 194.734 118.615L197.075 118.482V117.798C197.075 116.801 196.415 116.204 195.284 116.204C194.232 116.204 193.572 116.699 193.399 117.5H192.079C192.173 116.086 193.383 115.002 195.316 115.002C197.232 115.002 198.442 116.039 198.442 117.665V123.313H197.146V121.907H197.114C196.627 122.841 195.59 123.454 194.491 123.454ZM200.249 123.313V111.977H201.616V123.313H200.249ZM203.532 123.313V115.143H204.899V123.313H203.532ZM204.216 113.768C203.752 113.768 203.367 113.384 203.367 112.92C203.367 112.449 203.752 112.072 204.216 112.072C204.687 112.072 205.072 112.449 205.072 112.92C205.072 113.384 204.687 113.768 204.216 113.768ZM207.185 123.313V116.266H206.046V115.143H207.185V114.232C207.185 112.661 207.916 111.915 209.424 111.915C209.73 111.915 210.06 111.946 210.256 111.977V113.085C210.091 113.062 209.864 113.038 209.636 113.038C208.897 113.038 208.544 113.431 208.544 114.24V115.143H210.217V116.266H208.552V123.313H207.185ZM211.702 123.313V115.143H213.069V123.313H211.702ZM212.385 113.768C211.922 113.768 211.537 113.384 211.537 112.92C211.537 112.449 211.922 112.072 212.385 112.072C212.857 112.072 213.241 112.449 213.241 112.92C213.241 113.384 212.857 113.768 212.385 113.768ZM221.702 117.822H220.366C220.17 116.934 219.479 116.204 218.277 116.204C216.863 116.204 215.904 117.374 215.904 119.228C215.904 121.129 216.879 122.252 218.292 122.252C219.408 122.252 220.138 121.663 220.374 120.681H221.717C221.505 122.307 220.138 123.454 218.285 123.454C216.022 123.454 214.514 121.86 214.514 119.228C214.514 116.651 216.014 115.002 218.269 115.002C220.311 115.002 221.529 116.353 221.702 117.822ZM225.669 122.292C226.957 122.292 227.947 121.388 227.947 120.21V119.542L225.763 119.676C224.663 119.746 224.035 120.233 224.035 121.003C224.035 121.781 224.687 122.292 225.669 122.292ZM225.362 123.454C223.736 123.454 222.644 122.472 222.644 121.003C222.644 119.605 223.721 118.725 225.606 118.615L227.947 118.482V117.798C227.947 116.801 227.287 116.204 226.156 116.204C225.103 116.204 224.443 116.699 224.27 117.5H222.951C223.045 116.086 224.255 115.002 226.187 115.002C228.104 115.002 229.314 116.039 229.314 117.665V123.313H228.017V121.907H227.986C227.499 122.841 226.462 123.454 225.362 123.454ZM234.145 123.454C232.063 123.454 230.649 121.789 230.649 119.228C230.649 116.667 232.055 115.002 234.113 115.002C235.284 115.002 236.226 115.575 236.713 116.471H236.745V111.977H238.112V123.313H236.808V121.93H236.784C236.258 122.873 235.323 123.454 234.145 123.454ZM234.404 116.204C232.958 116.204 232.047 117.382 232.047 119.228C232.047 121.082 232.958 122.252 234.404 122.252C235.81 122.252 236.753 121.058 236.753 119.228C236.753 117.406 235.81 116.204 234.404 116.204ZM243.343 123.454C241.081 123.454 239.557 121.828 239.557 119.228C239.557 116.62 241.081 115.002 243.343 115.002C245.598 115.002 247.122 116.62 247.122 119.228C247.122 121.828 245.598 123.454 243.343 123.454ZM243.343 122.252C244.789 122.252 245.731 121.153 245.731 119.228C245.731 117.303 244.789 116.204 243.343 116.204C241.898 116.204 240.947 117.303 240.947 119.228C240.947 121.153 241.898 122.252 243.343 122.252ZM248.363 117.398C248.363 115.999 249.612 115.002 251.411 115.002C253.1 115.002 254.341 116.007 254.404 117.39H253.1C253.005 116.604 252.369 116.117 251.364 116.117C250.366 116.117 249.706 116.612 249.706 117.327C249.706 117.893 250.138 118.27 251.065 118.505L252.33 118.812C253.979 119.228 254.576 119.825 254.576 121.027C254.576 122.449 253.233 123.454 251.324 123.454C249.533 123.454 248.284 122.48 248.143 121.035H249.51C249.659 121.883 250.303 122.339 251.411 122.339C252.518 122.339 253.202 121.867 253.202 121.129C253.202 120.548 252.864 120.233 251.945 119.99L250.507 119.621C249.07 119.252 248.363 118.513 248.363 117.398ZM262.573 116.188C261.293 116.188 260.397 117.17 260.311 118.529H264.749C264.718 117.162 263.861 116.188 262.573 116.188ZM264.718 120.972H266.061C265.825 122.402 264.443 123.454 262.66 123.454C260.319 123.454 258.897 121.828 258.897 119.259C258.897 116.722 260.342 115.002 262.597 115.002C264.804 115.002 266.163 116.604 266.163 119.079V119.597H260.303V119.676C260.303 121.239 261.222 122.268 262.691 122.268C263.728 122.268 264.49 121.742 264.718 120.972ZM270.916 123.313V115.143H272.282V123.313H270.916ZM271.599 113.768C271.135 113.768 270.751 113.384 270.751 112.92C270.751 112.449 271.135 112.072 271.599 112.072C272.07 112.072 272.455 112.449 272.455 112.92C272.455 113.384 272.07 113.768 271.599 113.768ZM274.128 123.313V115.143H275.417V116.447H275.448C275.833 115.583 276.666 115.002 277.765 115.002C278.881 115.002 279.706 115.567 280.059 116.557H280.091C280.546 115.583 281.505 115.002 282.651 115.002C284.27 115.002 285.314 116.054 285.314 117.673V123.313H283.948V117.987C283.948 116.871 283.327 116.212 282.251 116.212C281.167 116.212 280.405 117.013 280.405 118.12V123.313H279.038V117.838C279.038 116.856 278.378 116.212 277.365 116.212C276.281 116.212 275.495 117.06 275.495 118.191V123.313H274.128ZM291.025 115.002C293.107 115.002 294.521 116.667 294.521 119.228C294.521 121.789 293.115 123.454 291.057 123.454C289.886 123.454 288.944 122.881 288.457 121.985H288.425V126.039H287.058V115.143H288.354V116.526H288.386C288.889 115.607 289.839 115.002 291.025 115.002ZM290.758 122.252C292.211 122.252 293.123 121.082 293.123 119.228C293.123 117.382 292.211 116.204 290.758 116.204C289.36 116.204 288.417 117.413 288.417 119.228C288.417 121.05 289.36 122.252 290.758 122.252ZM302.612 115.143V123.313H301.316V121.985H301.284C300.797 122.928 299.949 123.454 298.692 123.454C296.909 123.454 295.864 122.299 295.864 120.446V115.143H297.231V120.202C297.231 121.53 297.852 122.244 299.116 122.244C300.444 122.244 301.245 121.333 301.245 119.943V115.143H302.612ZM304.458 123.313V111.977H305.825V123.313H304.458ZM307.529 117.398C307.529 115.999 308.778 115.002 310.577 115.002C312.266 115.002 313.507 116.007 313.57 117.39H312.266C312.172 116.604 311.536 116.117 310.53 116.117C309.532 116.117 308.873 116.612 308.873 117.327C308.873 117.893 309.305 118.27 310.232 118.505L311.496 118.812C313.146 119.228 313.743 119.825 313.743 121.027C313.743 122.449 312.4 123.454 310.491 123.454C308.7 123.454 307.451 122.48 307.309 121.035H308.676C308.825 121.883 309.47 122.339 310.577 122.339C311.685 122.339 312.368 121.867 312.368 121.129C312.368 120.548 312.03 120.233 311.111 119.99L309.674 119.621C308.236 119.252 307.529 118.513 307.529 117.398ZM315.235 123.313V115.143H316.602V123.313H315.235ZM315.919 113.768C315.455 113.768 315.07 113.384 315.07 112.92C315.07 112.449 315.455 112.072 315.919 112.072C316.39 112.072 316.775 112.449 316.775 112.92C316.775 113.384 316.39 113.768 315.919 113.768ZM321.834 123.454C319.572 123.454 318.048 121.828 318.048 119.228C318.048 116.62 319.572 115.002 321.834 115.002C324.088 115.002 325.612 116.62 325.612 119.228C325.612 121.828 324.088 123.454 321.834 123.454ZM321.834 122.252C323.279 122.252 324.222 121.153 324.222 119.228C324.222 117.303 323.279 116.204 321.834 116.204C320.389 116.204 319.438 117.303 319.438 119.228C319.438 121.153 320.389 122.252 321.834 122.252ZM326.995 123.313V115.143H328.283V116.447H328.315C328.77 115.567 329.642 115.002 330.907 115.002C332.698 115.002 333.735 116.157 333.735 118.01V123.313H332.368V118.254C332.368 116.934 331.747 116.212 330.491 116.212C329.202 116.212 328.362 117.123 328.362 118.505V123.313H326.995ZM338.173 122.292C339.461 122.292 340.451 121.388 340.451 120.21V119.542L338.267 119.676C337.168 119.746 336.539 120.233 336.539 121.003C336.539 121.781 337.191 122.292 338.173 122.292ZM337.867 123.454C336.241 123.454 335.149 122.472 335.149 121.003C335.149 119.605 336.225 118.725 338.11 118.615L340.451 118.482V117.798C340.451 116.801 339.791 116.204 338.66 116.204C337.607 116.204 336.948 116.699 336.775 117.5H335.455C335.549 116.086 336.759 115.002 338.692 115.002C340.608 115.002 341.818 116.039 341.818 117.665V123.313H340.522V121.907H340.49C340.003 122.841 338.966 123.454 337.867 123.454ZM343.554 123.313V115.143H344.842V116.479H344.874C345.141 115.575 345.895 115.002 346.853 115.002C347.089 115.002 347.293 115.041 347.403 115.057V116.384C347.293 116.345 347.003 116.306 346.673 116.306C345.612 116.306 344.921 117.068 344.921 118.222V123.313H343.554ZM355.203 123.454C352.941 123.454 351.417 121.828 351.417 119.228C351.417 116.62 352.941 115.002 355.203 115.002C357.458 115.002 358.982 116.62 358.982 119.228C358.982 121.828 357.458 123.454 355.203 123.454ZM355.203 122.252C356.649 122.252 357.592 121.153 357.592 119.228C357.592 117.303 356.649 116.204 355.203 116.204C353.758 116.204 352.808 117.303 352.808 119.228C352.808 121.153 353.758 122.252 355.203 122.252ZM368.55 123.313H367.151L362.972 111.977H364.457L367.827 121.592H367.874L371.244 111.977H372.729L368.55 123.313ZM383.585 118.623C383.585 121.687 381.802 123.501 378.777 123.501C375.612 123.501 373.585 121.192 373.585 117.586C373.585 114.043 375.604 111.789 378.777 111.789C381.228 111.789 383.09 113.242 383.514 115.497H382.03C381.558 113.965 380.372 113.093 378.777 113.093C376.444 113.093 375.038 114.774 375.038 117.578C375.038 120.43 376.468 122.197 378.777 122.197C380.788 122.197 382.171 120.893 382.171 118.992V118.788H378.974V117.547H383.585V118.623ZM390.073 123.313H388.675L384.496 111.977H385.981L389.351 121.592H389.398L392.768 111.977H394.252L390.073 123.313ZM401.731 123.454C399.649 123.454 398.235 121.789 398.235 119.228C398.235 116.667 399.641 115.002 401.699 115.002C402.87 115.002 403.812 115.575 404.299 116.471H404.331V111.977H405.698V123.313H404.394V121.93H404.37C403.844 122.873 402.909 123.454 401.731 123.454ZM401.99 116.204C400.545 116.204 399.633 117.382 399.633 119.228C399.633 121.082 400.545 122.252 401.99 122.252C403.396 122.252 404.339 121.058 404.339 119.228C404.339 117.406 403.396 116.204 401.99 116.204ZM410.929 123.454C408.667 123.454 407.143 121.828 407.143 119.228C407.143 116.62 408.667 115.002 410.929 115.002C413.184 115.002 414.708 116.62 414.708 119.228C414.708 121.828 413.184 123.454 410.929 123.454ZM410.929 122.252C412.375 122.252 413.317 121.153 413.317 119.228C413.317 117.303 412.375 116.204 410.929 116.204C409.484 116.204 408.533 117.303 408.533 119.228C408.533 121.153 409.484 122.252 410.929 122.252ZM419.248 117.398C419.248 115.999 420.497 115.002 422.296 115.002C423.985 115.002 425.226 116.007 425.289 117.39H423.985C423.891 116.604 423.254 116.117 422.249 116.117C421.251 116.117 420.591 116.612 420.591 117.327C420.591 117.893 421.024 118.27 421.95 118.505L423.215 118.812C424.865 119.228 425.462 119.825 425.462 121.027C425.462 122.449 424.119 123.454 422.21 123.454C420.419 123.454 419.17 122.48 419.028 121.035H420.395C420.544 121.883 421.188 122.339 422.296 122.339C423.404 122.339 424.087 121.867 424.087 121.129C424.087 120.548 423.749 120.233 422.83 119.99L421.393 119.621C419.955 119.252 419.248 118.513 419.248 117.398ZM430.159 116.188C428.879 116.188 427.983 117.17 427.897 118.529H432.335C432.304 117.162 431.448 116.188 430.159 116.188ZM432.304 120.972H433.647C433.411 122.402 432.029 123.454 430.246 123.454C427.905 123.454 426.483 121.828 426.483 119.259C426.483 116.722 427.928 115.002 430.183 115.002C432.39 115.002 433.749 116.604 433.749 119.079V119.597H427.889V119.676C427.889 121.239 428.808 122.268 430.277 122.268C431.314 122.268 432.076 121.742 432.304 120.972ZM441.84 115.143V123.313H440.544V121.985H440.513C440.026 122.928 439.177 123.454 437.92 123.454C436.137 123.454 435.092 122.299 435.092 120.446V115.143H436.459V120.202C436.459 121.53 437.08 122.244 438.345 122.244C439.672 122.244 440.473 121.333 440.473 119.943V115.143H441.84ZM446.915 123.313V115.143H448.203V116.447H448.234C448.69 115.567 449.562 115.002 450.827 115.002C452.618 115.002 453.655 116.157 453.655 118.01V123.313H452.288V118.254C452.288 116.934 451.667 116.212 450.41 116.212C449.122 116.212 448.282 117.123 448.282 118.505V123.313H446.915ZM458.674 116.188C457.394 116.188 456.498 117.17 456.412 118.529H460.85C460.819 117.162 459.963 116.188 458.674 116.188ZM460.819 120.972H462.162C461.926 122.402 460.544 123.454 458.761 123.454C456.42 123.454 454.998 121.828 454.998 119.259C454.998 116.722 456.443 115.002 458.698 115.002C460.905 115.002 462.264 116.604 462.264 119.079V119.597H456.404V119.676C456.404 121.239 457.323 122.268 458.792 122.268C459.829 122.268 460.591 121.742 460.819 120.972ZM466.97 122.174C468.391 122.174 469.342 120.995 469.342 119.197C469.342 117.398 468.391 116.204 466.97 116.204C465.563 116.204 464.644 117.366 464.644 119.197C464.644 121.027 465.563 122.174 466.97 122.174ZM467.017 126.392C465.218 126.392 463.796 125.379 463.568 123.988H464.974C465.241 124.735 466.05 125.229 467.072 125.229C468.486 125.229 469.342 124.412 469.342 123.195V121.907H469.31C468.808 122.794 467.841 123.376 466.695 123.376C464.613 123.376 463.246 121.734 463.246 119.197C463.246 116.636 464.613 115.002 466.726 115.002C467.881 115.002 468.839 115.567 469.381 116.518H469.405V115.143H470.709V123.148C470.709 125.096 469.271 126.392 467.017 126.392ZM475.877 123.454C473.615 123.454 472.091 121.828 472.091 119.228C472.091 116.62 473.615 115.002 475.877 115.002C478.132 115.002 479.656 116.62 479.656 119.228C479.656 121.828 478.132 123.454 475.877 123.454ZM475.877 122.252C477.323 122.252 478.265 121.153 478.265 119.228C478.265 117.303 477.323 116.204 475.877 116.204C474.432 116.204 473.482 117.303 473.482 119.228C473.482 121.153 474.432 122.252 475.877 122.252ZM476.498 113.965H475.304L476.954 111.608H478.43L476.498 113.965ZM487.825 117.822H486.49C486.294 116.934 485.602 116.204 484.401 116.204C482.987 116.204 482.028 117.374 482.028 119.228C482.028 121.129 483.002 122.252 484.416 122.252C485.532 122.252 486.262 121.663 486.498 120.681H487.841C487.629 122.307 486.262 123.454 484.408 123.454C482.146 123.454 480.638 121.86 480.638 119.228C480.638 116.651 482.138 115.002 484.393 115.002C486.435 115.002 487.653 116.353 487.825 117.822ZM489.169 123.313V115.143H490.536V123.313H489.169ZM489.852 113.768C489.389 113.768 489.004 113.384 489.004 112.92C489.004 112.449 489.389 112.072 489.852 112.072C490.323 112.072 490.708 112.449 490.708 112.92C490.708 113.384 490.323 113.768 489.852 113.768ZM495.767 123.454C493.505 123.454 491.981 121.828 491.981 119.228C491.981 116.62 493.505 115.002 495.767 115.002C498.022 115.002 499.546 116.62 499.546 119.228C499.546 121.828 498.022 123.454 495.767 123.454ZM495.767 122.252C497.213 122.252 498.155 121.153 498.155 119.228C498.155 117.303 497.213 116.204 495.767 116.204C494.322 116.204 493.371 117.303 493.371 119.228C493.371 121.153 494.322 122.252 495.767 122.252ZM501.612 123.391C501.109 123.391 500.716 122.999 500.716 122.496C500.716 121.993 501.109 121.6 501.612 121.6C502.114 121.6 502.507 121.993 502.507 122.496C502.507 122.999 502.114 123.391 501.612 123.391Z" fill="white"/>
</svg>
